<?xml version="1.0" encoding="UTF-8"?>
<!DOCTYPE svg PUBLIC "-//W3C//DTD SVG 1.1//EN" "http://www.w3.org/Graphics/SVG/1.1/DTD/svg11.dtd">
<!-- Creator: CorelDRAW X7 -->
<svg xmlns="http://www.w3.org/2000/svg" xml:space="preserve" width="100px" height="10px" version="1.1" style="shape-rendering:geometricPrecision; text-rendering:geometricPrecision; image-rendering:optimizeQuality; fill-rule:evenodd; clip-rule:evenodd"
viewBox="0 0 1000 100"
 xmlns:xlink="http://www.w3.org/1999/xlink">
 <defs>
  <style type="text/css">
   <![CDATA[
    .fil0 {fill:white;fill-rule:nonzero}
   ]]>
  </style>
 </defs>
 <g id="Layer_x0020_1">
  <metadata id="CorelCorpID_0Corel-Layer"/>
  <path class="fil0" d="M8 43l31 0c2,0 4,0 6,-1 1,-1 2,-3 3,-4 1,-2 2,-4 2,-6l0 0c0,-3 -1,-5 -2,-7 0,-2 -2,-3 -3,-4 -2,-1 -4,-1 -6,-1l-31 0 0 -18 30 0c6,0 12,1 16,4 5,2 8,6 11,10 2,5 3,10 3,16l0 0c0,5 -1,10 -3,15 -3,4 -6,8 -11,10 -4,3 -10,4 -16,4l-30 0 0 -18zm-8 -41l18 0 0 96 -18 0 0 -96zm127 40l34 0c1,0 3,-1 4,-1 2,-1 3,-3 4,-4 0,-2 1,-4 1,-6l0 0c0,-3 0,-5 -1,-6 -1,-2 -2,-3 -4,-4 -1,-1 -3,-2 -4,-2l-34 0 0 -17 35 0c5,0 10,1 14,4 4,2 7,5 9,10 2,4 3,9 3,15l0 0c0,5 -1,10 -3,15 -2,4 -5,7 -9,10 -4,2 -9,3 -14,3l-35 0 0 -17zm-7 -40l18 0 0 96 -18 0 0 -96zm27 54l20 -3 25 45 -21 0 -24 -42zm130 43c-7,0 -13,-2 -18,-5 -5,-2 -10,-7 -12,-12 -3,-5 -5,-11 -5,-18l0 -28c0,-7 2,-13 5,-18 2,-5 7,-10 12,-12 5,-3 11,-5 18,-5 7,0 13,2 18,5 6,2 10,7 13,12 3,5 4,11 4,18l0 28c0,7 -1,13 -4,18 -3,5 -7,10 -13,12 -5,3 -11,5 -18,5zm0 -18c3,0 6,-1 9,-2 2,-2 4,-4 5,-6 2,-3 2,-6 2,-9l0 -28c0,-3 0,-6 -2,-9 -1,-2 -3,-4 -5,-6 -3,-1 -6,-2 -9,-2 -3,0 -6,1 -8,2 -3,2 -5,4 -6,6 -1,3 -2,6 -2,9l0 28c0,3 1,6 2,9 1,2 3,4 6,6 2,1 5,2 8,2zm120 18c-4,0 -9,-1 -13,-2 -4,0 -8,-2 -12,-4 -4,-1 -8,-4 -11,-6l0 0 9 -15 0 0c3,3 8,5 13,7 4,2 9,3 14,3 6,0 11,-1 14,-3 3,-2 5,-5 5,-9l0 0c0,-2 -1,-4 -2,-6 -2,-1 -3,-3 -6,-3 -2,-1 -5,-2 -9,-2 0,0 0,0 0,0 0,0 0,0 -1,0l-1 -1c-6,-1 -12,-2 -16,-3 -4,-2 -8,-4 -11,-8 -3,-4 -4,-9 -4,-16l0 0c0,-7 1,-12 4,-16 3,-5 7,-8 12,-10 5,-3 12,-4 19,-4 4,0 7,1 11,1 3,1 7,2 10,4 4,1 7,3 10,5l0 0 -8 15 0 0c-3,-2 -7,-4 -11,-5 -4,-2 -8,-3 -12,-3 -5,0 -10,1 -13,3 -3,2 -4,5 -4,8l0 0c0,3 1,5 2,6 2,2 4,3 6,4 2,1 6,1 10,2 0,0 0,0 0,0 1,0 1,0 1,0 0,1 1,1 1,1 0,0 0,0 0,0 7,1 12,2 16,4 4,2 7,5 10,8 3,4 4,9 4,16l0 0c0,6 -2,11 -4,15 -3,5 -7,8 -13,10 -5,3 -12,4 -20,4zm117 -97l11 0 37 96 -19 0 -23 -66 -23 66 -20 0 37 -96zm-19 63l50 0 0 18 -50 0 0 -18zm115 -63l18 0 0 96 -18 0 0 -96zm7 40l49 0 0 18 -49 0 0 -18zm0 -40l56 0 0 18 -56 0 0 -18zm105 0l18 0 0 96 -18 0 0 -96zm6 78l58 0 0 18 -58 0 0 -18zm0 -38l50 0 0 17 -50 0 0 -17zm0 -40l58 0 0 18 -58 0 0 -18zm123 8l18 0 0 88 -18 0 0 -88zm-26 -8l70 0 0 18 -70 0 0 -18zm147 59l0 37 -18 0 0 -37 -28 -59 19 0 18 41 18 -41 19 0 -28 59z"/>
 </g>
</svg>
